<?xml version="1.0" ?><svg height="32" id="svg2" version="1.1" viewBox="0 0 32 32.000001" width="32" xmlns="http://www.w3.org/2000/svg" xmlns:cc="http://creativecommons.org/ns#" xmlns:dc="http://purl.org/dc/elements/1.1/" xmlns:inkscape="http://www.inkscape.org/namespaces/inkscape" xmlns:rdf="http://www.w3.org/1999/02/22-rdf-syntax-ns#" xmlns:sodipodi="http://sodipodi.sourceforge.net/DTD/sodipodi-0.dtd" xmlns:svg="http://www.w3.org/2000/svg"><defs id="defs4"/><g id="layer1" transform="translate(0,-1020.3622)"><path d="m 8.5000005,1030.1122 1.9999995,1 2.000001,0" id="path13545" style="fill:none;fill-rule:evenodd;stroke:#000000;stroke-width:1px;stroke-linecap:butt;stroke-linejoin:miter;stroke-opacity:1"/><path d="m 22.000001,1030.6122 -0.652082,0.326 a 1,1 0 0 1 -0.721935,0.067 l -2.856651,-0.8161 a 2,2 0 0 0 -0.549442,-0.077 l -3.149523,0 a 2,2 0 0 0 -1.6641,0.8906 L 10,1034.6122 l 2.464817,0 a 1,1 0 0 0 0.832051,-0.4453 l 0.406266,-0.6094 a 1,1 0 0 1 0.832051,-0.4453 l 0.66204,0 a 1,1 0 0 1 0.554701,0.1679 l 7.648627,5.0991 a 1.25,1.25 0 0 1 0.306625,1.7901 l -0.03076,0.041 a 1.25,1.25 0 0 1 -1.643119,0.3219 l -4.033297,-2.42" id="path13547" style="fill:none;fill-rule:evenodd;stroke:#000000;stroke-width:1.00157475;stroke-linecap:round;stroke-linejoin:round;stroke-miterlimit:4;stroke-dasharray:none;stroke-opacity:1"/><path d="m 23.500001,1038.1122 2,-2.5" id="path13549" style="fill:none;fill-rule:evenodd;stroke:#000000;stroke-width:1px;stroke-linecap:butt;stroke-linejoin:miter;stroke-opacity:1"/><path d="m 7.0000003,1038.1122 -2,-2" id="path13551" style="fill:none;fill-rule:evenodd;stroke:#000000;stroke-width:1px;stroke-linecap:butt;stroke-linejoin:miter;stroke-opacity:1"/><path d="m 9.9961731,1028.1182 -5.9936738,9.494 -3.49631035,-1.9987" id="path13553" style="fill:none;fill-rule:evenodd;stroke:#000000;stroke-width:1px;stroke-linecap:round;stroke-linejoin:round;stroke-opacity:1"/><path d="m 11.005794,1037.7693 0.05314,0.035 c 0.455448,0.2979 0.580747,0.9041 0.280938,1.3591 l -1.9822606,3.0084 c -0.2998035,0.455 -0.907823,0.5814 -1.3632705,0.2835 l -0.053139,-0.035 c -0.4554475,-0.298 -0.5807465,-0.9041 -0.2809431,-1.3591 l 1.9822605,-3.0084 c 0.299809,-0.455 0.9078287,-0.5815 1.3632757,-0.2835 z" id="rect13555" style="opacity:1;fill:none;fill-opacity:1;stroke:#000000;stroke-width:1.0000025;stroke-linecap:round;stroke-linejoin:round;stroke-miterlimit:4;stroke-dasharray:none;stroke-opacity:1"/><path d="m 12.15215,1039.7235 c 0.463563,0.3033 0.592531,0.9207 0.289168,1.3843 l -1.368919,2.0919 c -0.303363,0.4635 -0.920781,0.5925 -1.3843433,0.2892 -0.4635626,-0.3034 -0.592531,-0.9208 -0.2891681,-1.3844 l 1.3689194,-2.0918 c 0.303363,-0.4636 0.920781,-0.5926 1.384343,-0.2892 z" id="rect13557" style="opacity:1;fill:none;fill-opacity:1;stroke:#000000;stroke-width:1;stroke-linecap:round;stroke-linejoin:round;stroke-miterlimit:4;stroke-dasharray:none;stroke-opacity:1"/><path d="m 13.485701,1041.2686 c 0.465013,0.3011 0.597651,0.9183 0.297389,1.3839 l -0.890987,1.3816 c -0.300262,0.4656 -0.916345,0.598 -1.381358,0.2968 -0.465012,-0.3011 -0.597642,-0.9183 -0.29738,-1.3839 l 0.890987,-1.3816 c 0.300262,-0.4656 0.916337,-0.598 1.381349,-0.2968 z" id="rect13559" style="opacity:1;fill:none;fill-opacity:1;stroke:#000000;stroke-width:1.00000095;stroke-linecap:round;stroke-linejoin:round;stroke-miterlimit:4;stroke-dasharray:none;stroke-opacity:1"/><path d="m 8.6464572,1037.7552 c 0.4650128,0.3011 0.5976451,0.9183 0.2973886,1.3839 l -0.8909922,1.3816 c -0.3002565,0.4656 -0.9163451,0.598 -1.381358,0.2968 -0.4650128,-0.3011 -0.5976367,-0.9183 -0.2973802,-1.3839 l 0.8909922,-1.3816 c 0.3002565,-0.4656 0.9163367,-0.598 1.3813496,-0.2968 z" id="rect13561" style="opacity:1;fill:none;fill-opacity:1;stroke:#000000;stroke-width:1.00000095;stroke-linecap:round;stroke-linejoin:round;stroke-miterlimit:4;stroke-dasharray:none;stroke-opacity:1"/><path d="m 21.003825,1028.1182 5.993672,9.494 3.49631,-1.9987" id="path13563" style="fill:none;fill-rule:evenodd;stroke:#000000;stroke-width:1px;stroke-linecap:round;stroke-linejoin:round;stroke-opacity:1"/><path d="m 22.251409,1040.8884 -0.42927,0.5913 a 1.5,1.5 0 0 1 -2.008861,0.3908 l -2.813277,-1.7583" id="path13565" style="fill:none;fill-rule:evenodd;stroke:#000000;stroke-width:1.00157475;stroke-linecap:round;stroke-linejoin:round;stroke-miterlimit:4;stroke-dasharray:none;stroke-opacity:1"/><path d="m 20.765166,1042.3691 -0.442739,0.61 a 1.561214,1.561214 0 0 1 -2.038066,0.4384 l -2.28436,-1.3053" id="path13567" style="fill:none;fill-rule:evenodd;stroke:#000000;stroke-width:1.00157475;stroke-linecap:round;stroke-linejoin:round;stroke-miterlimit:4;stroke-dasharray:none;stroke-opacity:1"/><path d="m 18.407481,1043.635 -0.438392,0.67 a 1.2312126,1.2312126 0 0 1 -1.469687,0.476 l -2.999401,-1.146" id="path13569" style="fill:none;fill-rule:evenodd;stroke:#000000;stroke-width:1.00157475;stroke-linecap:butt;stroke-linejoin:round;stroke-miterlimit:4;stroke-dasharray:none;stroke-opacity:1"/><path d="m 3.5000002,1034.6122 a 0.5,0.5 0 0 1 -0.5,0.5 0.5,0.5 0 0 1 -0.5,-0.5 0.5,0.5 0 0 1 0.5,-0.5 0.5,0.5 0 0 1 0.5,0.5 z" id="circle13571" style="opacity:1;fill:#000000;fill-opacity:1;stroke:none;stroke-width:1;stroke-linecap:round;stroke-linejoin:round;stroke-miterlimit:4;stroke-dasharray:none;stroke-opacity:1"/><path d="m 28.499996,1034.6122 a 0.5,0.5 0 0 1 -0.5,0.5 0.5,0.5 0 0 1 -0.5,-0.5 0.5,0.5 0 0 1 0.5,-0.5 0.5,0.5 0 0 1 0.5,0.5 z" id="circle13573" style="opacity:1;fill:#000000;fill-opacity:1;stroke:none;stroke-width:1;stroke-linecap:round;stroke-linejoin:round;stroke-miterlimit:4;stroke-dasharray:none;stroke-opacity:1"/></g></svg>