<svg xmlns="http://www.w3.org/2000/svg" xmlns:xlink="http://www.w3.org/1999/xlink" version="1.1" width="30" height="30" x="0px" y="0px" viewBox="0 0 100 125" enable-background="new 0 0 100 100" xml:space="preserve"><path d="M97.9,26.3L50.1,1.2c-0.7-0.4-1.5-0.3-2.1,0L2,26.3c-1.1,0.6-1.5,2-0.9,3.1c0.6,1.1,2,1.5,3.1,0.9L49.1,5.8  c50.3,26.3,47,24.8,47.8,24.8C99.2,30.6,100,27.4,97.9,26.3z"/><path d="M28.3,94.4C28.3,94.4,28.2,94.5,28.3,94.4l-8,0.1c-0.1,0-0.1,0-0.1-0.1v-5h-4.5v5c0,2.6,2.1,4.6,4.6,4.6h7.9  c2.6,0,4.6-2.1,4.6-4.6v-5h-4.5V94.4z"/><path d="M75.7,94.4C75.7,94.4,75.6,94.5,75.7,94.4l-8,0.1c-0.1,0-0.1,0-0.1-0.1v-5H63v5c0,2.6,2.1,4.6,4.6,4.6h7.9  c2.6,0,4.6-2.1,4.6-4.6v-5h-4.5V94.4z"/><path d="M89.9,41.8l-11.2-1.6l-2-7.9c-0.3-1-1.2-1.7-2.2-1.7h-53c-1,0-1.9,0.7-2.2,1.7l-2,8L6.4,41.8C5.2,42,4.4,43,4.4,44.1v6  c0,1.3,1,2.3,2.3,2.3h7.6l-0.3,1.4H9.1c-1.3,0-2.3,1-2.3,2.3v28.1c0,1.3,1,2.3,2.3,2.3c8,0,69.5,0,77.6,0c1.3,0,2.3-1,2.3-2.3V56  c0-1.3-1-2.3-2.3-2.3H82l-0.3-1.4h7.9c1.3,0,2.3-1,2.3-2.3v-6C91.8,43,91,42,89.9,41.8z M23.2,35.1h49.5l4.6,18.6H18.6  C19.5,49.9,22.2,38.9,23.2,35.1z M8.9,47.8V46l7.1-1l-0.7,2.8H8.9z M84.5,58.3v23.6c-1.2,0-67.8,0-73.1,0V58.3  C13.9,58.3,81.9,58.3,84.5,58.3z M87.3,47.8h-6.8L79.8,45l7.5,1.1V47.8z"/><path d="M14.4,66c-3.5,4.4-0.2,10.8,5.2,10.8c3.7,0,6.7-3,6.7-6.7C26.3,63.8,18.3,61,14.4,66z M19.7,72.2c-1.2,0-2.1-1-2.1-2.1  c0-1.2,1-2.1,2.1-2.1c1.2,0,2.1,1,2.1,2.1C21.8,71.2,20.8,72.2,19.7,72.2z"/><path d="M69.5,70.1c0,6.3,8,9.1,11.9,4.1c0.9-1.1,1.4-2.5,1.4-4.1c0-1.5-0.5-3-1.4-4.1C77.5,61,69.5,63.7,69.5,70.1z M78.3,70.1  c0,1.2-1,2.1-2.1,2.1s-2.1-1-2.1-2.1c0-1.2,1-2.1,2.1-2.1S78.3,68.9,78.3,70.1z"/><path d="M64.3,65H31.6c-1.3,0-2.3,1-2.3,2.3s1,2.3,2.3,2.3h32.7c1.3,0,2.3-1,2.3-2.3S65.5,65,64.3,65z"/><path d="M64.3,70.6H31.6c-1.3,0-2.3,1-2.3,2.3s1,2.3,2.3,2.3h32.7c1.3,0,2.3-1,2.3-2.3S65.5,70.6,64.3,70.6z"/></svg>