<?xml version="1.0" ?><svg height="308" version="1.1" width="338" xmlns="http://www.w3.org/2000/svg" xmlns:xlink="http://www.w3.org/1999/xlink"><g id="dp_dp001" transform="matrix(1,0,0,1,-1171.56,-123.164)"><path d="M 1434.99,257.573 C 1434.99,328.699 1377.39,386.357 1306.34,386.357 C 1235.28,386.357 1177.68,328.699 1177.68,257.573 C 1177.68,186.447 1235.28,128.788 1306.34,128.788 C 1377.39,128.788 1434.99,186.447 1434.99,257.573 Z " fill="none" fill-rule="evenodd" id="dp_path002" stroke="black" stroke-linejoin="round" stroke-width="12"/><path d="M 1243.38,306.464 L 1243.66,228.863 L 1308.69,186.681 L 1308.69,186.681 L 1369.29,228.863 L 1369.29,306.464" fill="none" fill-rule="evenodd" id="dp_path003" stroke="black" stroke-linecap="round" stroke-linejoin="round" stroke-width="12"/><path d="M 1275.66,306.465 L 1275.66,260.863 C 1275.66,260.863 1304.99,260.863 1304.99,260.863 C 1304.99,260.863 1304.99,306.465 1304.99,306.465" fill="none" fill-rule="evenodd" id="dp_path004" stroke="black" stroke-linecap="round" stroke-linejoin="round" stroke-width="12"/><path d="M 1409.09,339.645 L 1501.1,422.936" fill="none" fill-rule="evenodd" id="dp_path005" stroke="black" stroke-linecap="round" stroke-linejoin="round" stroke-width="17.3333"/></g></svg>